<?xml version="1.0" encoding="utf-8"?>
<!-- 240-MP: a question's title bar (PromptScreen), a ? cut out of a disc -->
<svg xmlns="http://www.w3.org/2000/svg" viewBox="0 0 11 11">
  <path d="M 3 0 L 8 0 L 8 1 L 3 1 Z M 1 1 L 10 1 L 10 2 L 1 2 Z M 1 2 L 4 2 L 4 3 L 1 3 Z M 7 2 L 10 2 L 10 3 L 7 3 Z M 0 3 L 3 3 L 3 4 L 0 4 Z M 4 3 L 7 3 L 7 4 L 4 4 Z M 8 3 L 11 3 L 11 4 L 8 4 Z M 0 4 L 7 4 L 7 5 L 0 5 Z M 8 4 L 11 4 L 11 5 L 8 5 Z M 0 5 L 6 5 L 6 6 L 0 6 Z M 7 5 L 11 5 L 11 6 L 7 6 Z M 0 6 L 5 6 L 5 7 L 0 7 Z M 6 6 L 11 6 L 11 7 L 6 7 Z M 0 7 L 11 7 L 11 8 L 0 8 Z M 1 8 L 5 8 L 5 9 L 1 9 Z M 6 8 L 10 8 L 10 9 L 6 9 Z M 1 9 L 10 9 L 10 10 L 1 10 Z M 3 10 L 8 10 L 8 11 L 3 11 Z" style="fill: white;"/>
</svg>
