<svg xmlns="http://www.w3.org/2000/svg" viewBox="0 0 440 150" width="880" height="300">
<title>OSD/OS: Smart TV for CRTs</title>
<!-- The wordmark as Settings → About shows it: on the blue of the Video 1
     colour scheme, the letters in its white, the slash in its three colours. -->
<rect width="440" height="150" rx="6" fill="#0110C5"/>
<g>
<path d="M69.81 93.012V85.19200000000001H61.714000000000006V41.216H69.81V33.304H97.778V41.216H105.96600000000001V85.19200000000001H97.778V93.012ZM73.398 80.5H94.19V45.908H73.398Z M125.286 93.012V85.19200000000001H117.19V72.588H128.874V80.5H149.666V69.368H125.286V61.548H117.19V41.216H125.286V33.304H153.25400000000002V41.216H161.442V53.728H149.666V45.908H128.874V56.948H153.25400000000002V64.676H161.442V85.19200000000001H153.25400000000002V93.012Z M172.666 93.012V33.304H200.63400000000001V41.216H208.73000000000002V49.036H216.918V77.28H208.73000000000002V85.19200000000001H200.63400000000001V93.012ZM184.35 80.5H197.046V72.588H205.142V53.728H197.046V45.908H184.35Z M286.65400000000005 93.012V85.19200000000001H278.55800000000005V41.216H286.65400000000005V33.304H314.622V41.216H322.81V85.19200000000001H314.622V93.012ZM290.242 80.5H311.03400000000005V45.908H290.242Z M342.13000000000005 93.012V85.19200000000001H334.03400000000005V72.588H345.718V80.5H366.51000000000005V69.368H342.13000000000005V61.548H334.03400000000005V41.216H342.13000000000005V33.304H370.098V41.216H378.286V53.728H366.51000000000005V45.908H345.718V56.948H370.098V64.676H378.286V85.19200000000001H370.098V93.012Z" fill="#e8eeff"/><polygon points="251.05,33.95 258.59,33.95 229.34,93.10 221.79,93.10" fill="#ff3d3d"/><polygon points="258.59,33.95 266.14,33.95 236.88,93.10 229.34,93.10" fill="#2f6bff"/><polygon points="266.14,33.95 273.68,33.95 244.43,93.10 236.88,93.10" fill="#2fe063"/>
<rect x="40" y="110" width="360" height="3" fill="#e8eeff"/>
<path d="M84.43599999999999 135.2Q84.43599999999999 135.752 84.33999999999999 136.16Q84.43599999999999 136.544 84.43599999999999 137.12Q84.43599999999999 137.672 84.33999999999999 138.08H83.38Q83.47599999999998 138.464 83.47599999999998 139.04Q83.47599999999998 139.592 83.38 140.0H77.61999999999999Q77.52399999999999 139.592 77.52399999999999 139.04Q77.52399999999999 138.464 77.61999999999999 138.08H76.65999999999998Q76.564 137.672 76.564 137.12Q76.564 136.544 76.65999999999998 136.16H78.57999999999998Q78.67599999999999 136.544 78.67599999999999 137.12Q78.67599999999999 137.672 78.57999999999998 138.08H82.41999999999999Q82.32399999999998 137.672 82.32399999999998 137.12Q82.32399999999998 136.544 82.41999999999999 136.16Q82.32399999999998 135.752 82.32399999999998 135.2Q82.32399999999998 134.624 82.41999999999999 134.24H77.61999999999999Q77.52399999999999 133.832 77.52399999999999 133.28Q77.52399999999999 132.704 77.61999999999999 132.32H76.65999999999998Q76.564 131.912 76.564 131.36Q76.564 130.784 76.65999999999998 130.4Q76.564 129.992 76.564 129.44Q76.564 128.864 76.65999999999998 128.48H77.61999999999999Q77.52399999999999 128.072 77.52399999999999 127.52Q77.52399999999999 126.944 77.61999999999999 126.56H83.38Q83.47599999999998 126.944 83.47599999999998 127.52Q83.47599999999998 128.072 83.38 128.48H84.33999999999999Q84.43599999999999 128.864 84.43599999999999 129.44Q84.43599999999999 129.992 84.33999999999999 130.4H82.41999999999999Q82.32399999999998 129.992 82.32399999999998 129.44Q82.32399999999998 128.864 82.41999999999999 128.48H78.57999999999998Q78.67599999999999 128.864 78.67599999999999 129.44Q78.67599999999999 129.992 78.57999999999998 130.4Q78.67599999999999 130.784 78.67599999999999 131.36Q78.67599999999999 131.912 78.57999999999998 132.32H83.38Q83.47599999999998 132.704 83.47599999999998 133.28Q83.47599999999998 133.832 83.38 134.24H84.33999999999999Q84.43599999999999 134.624 84.43599999999999 135.2Z M103.03599999999999 129.44Q103.03599999999999 129.992 102.93999999999998 130.4Q103.03599999999999 130.784 103.03599999999999 131.36Q103.03599999999999 131.912 102.93999999999998 132.32Q103.03599999999999 132.704 103.03599999999999 133.28Q103.03599999999999 133.832 102.93999999999998 134.24Q103.03599999999999 134.624 103.03599999999999 135.2Q103.03599999999999 135.752 102.93999999999998 136.16Q103.03599999999999 136.544 103.03599999999999 137.12Q103.03599999999999 137.672 102.93999999999998 138.08Q103.03599999999999 138.464 103.03599999999999 139.04Q103.03599999999999 139.592 102.93999999999998 140.0H101.01999999999998Q100.92399999999998 139.592 100.92399999999998 139.04Q100.92399999999998 138.464 101.01999999999998 138.08Q100.92399999999998 137.672 100.92399999999998 137.12Q100.92399999999998 136.544 101.01999999999998 136.16Q100.92399999999998 135.752 100.92399999999998 135.2Q100.92399999999998 134.624 101.01999999999998 134.24Q100.92399999999998 133.832 100.92399999999998 133.28Q100.92399999999998 132.704 101.01999999999998 132.32Q100.92399999999998 131.912 100.92399999999998 131.36Q100.92399999999998 130.784 101.01999999999998 130.4H100.29999999999998Q100.39599999999999 130.784 100.39599999999999 131.36Q100.39599999999999 131.912 100.29999999999998 132.32Q100.39599999999999 132.704 100.39599999999999 133.28Q100.39599999999999 133.832 100.29999999999998 134.24H99.81999999999998Q99.91599999999998 134.624 99.91599999999998 135.2Q99.91599999999998 135.752 99.81999999999998 136.16Q99.91599999999998 136.544 99.91599999999998 137.12Q99.91599999999998 137.672 99.81999999999998 138.08H98.37999999999998Q98.28399999999998 137.672 98.28399999999998 137.12Q98.28399999999998 136.544 98.37999999999998 136.16Q98.28399999999998 135.752 98.28399999999998 135.2Q98.28399999999998 134.624 98.37999999999998 134.24H97.89999999999998Q97.80399999999999 133.832 97.80399999999999 133.28Q97.80399999999999 132.704 97.89999999999998 132.32Q97.80399999999999 131.912 97.80399999999999 131.36Q97.80399999999999 130.784 97.89999999999998 130.4H97.17999999999998Q97.27599999999998 130.784 97.27599999999998 131.36Q97.27599999999998 131.912 97.17999999999998 132.32Q97.27599999999998 132.704 97.27599999999998 133.28Q97.27599999999998 133.832 97.17999999999998 134.24Q97.27599999999998 134.624 97.27599999999998 135.2Q97.27599999999998 135.752 97.17999999999998 136.16Q97.27599999999998 136.544 97.27599999999998 137.12Q97.27599999999998 137.672 97.17999999999998 138.08Q97.27599999999998 138.464 97.27599999999998 139.04Q97.27599999999998 139.592 97.17999999999998 140.0H95.25999999999998Q95.16399999999999 139.592 95.16399999999999 139.04Q95.16399999999999 138.464 95.25999999999998 138.08Q95.16399999999999 137.672 95.16399999999999 137.12Q95.16399999999999 136.544 95.25999999999998 136.16Q95.16399999999999 135.752 95.16399999999999 135.2Q95.16399999999999 134.624 95.25999999999998 134.24Q95.16399999999999 133.832 95.16399999999999 133.28Q95.16399999999999 132.704 95.25999999999998 132.32Q95.16399999999999 131.912 95.16399999999999 131.36Q95.16399999999999 130.784 95.25999999999998 130.4Q95.16399999999999 129.992 95.16399999999999 129.44Q95.16399999999999 128.864 95.25999999999998 128.48Q95.16399999999999 128.072 95.16399999999999 127.52Q95.16399999999999 126.944 95.25999999999998 126.56H97.65999999999998Q97.75599999999999 126.944 97.75599999999999 127.52Q97.75599999999999 128.072 97.65999999999998 128.48H98.37999999999998Q98.47599999999998 128.864 98.47599999999998 129.44Q98.47599999999998 129.992 98.37999999999998 130.4H98.73999999999998Q98.83599999999998 130.784 98.83599999999998 131.36Q98.83599999999998 131.912 98.73999999999998 132.32H99.45999999999998Q99.36399999999998 131.912 99.36399999999998 131.36Q99.36399999999998 130.784 99.45999999999998 130.4H99.81999999999998Q99.72399999999999 129.992 99.72399999999999 129.44Q99.72399999999999 128.864 99.81999999999998 128.48H100.53999999999998Q100.44399999999999 128.072 100.44399999999999 127.52Q100.44399999999999 126.944 100.53999999999998 126.56H102.93999999999998Q103.03599999999999 126.944 103.03599999999999 127.52Q103.03599999999999 128.072 102.93999999999998 128.48Q103.03599999999999 128.864 103.03599999999999 129.44Z M121.53999999999999 138.08Q121.636 138.464 121.636 139.04Q121.636 139.592 121.53999999999999 140.0H119.61999999999999Q119.52399999999999 139.592 119.52399999999999 139.04Q119.52399999999999 138.464 119.61999999999999 138.08Q119.52399999999999 137.672 119.52399999999999 137.12Q119.52399999999999 136.544 119.61999999999999 136.16H115.77999999999999Q115.87599999999999 136.544 115.87599999999999 137.12Q115.87599999999999 137.672 115.77999999999999 138.08Q115.87599999999999 138.464 115.87599999999999 139.04Q115.87599999999999 139.592 115.77999999999999 140.0H113.85999999999999Q113.764 139.592 113.764 139.04Q113.764 138.464 113.85999999999999 138.08Q113.764 137.672 113.764 137.12Q113.764 136.544 113.85999999999999 136.16H114.58Q114.484 135.752 114.484 135.2Q114.484 134.624 114.58 134.24Q114.484 133.832 114.484 133.28Q114.484 132.704 114.58 132.32H115.05999999999999Q114.964 131.912 114.964 131.36Q114.964 130.784 115.05999999999999 130.4H115.77999999999999Q115.684 129.992 115.684 129.44Q115.684 128.864 115.77999999999999 128.48H116.25999999999999Q116.16399999999999 128.072 116.16399999999999 127.52Q116.16399999999999 126.944 116.25999999999999 126.56H119.13999999999999Q119.23599999999999 126.944 119.23599999999999 127.52Q119.23599999999999 128.072 119.13999999999999 128.48H119.61999999999999Q119.716 128.864 119.716 129.44Q119.716 129.992 119.61999999999999 130.4H120.33999999999999Q120.43599999999999 130.784 120.43599999999999 131.36Q120.43599999999999 131.912 120.33999999999999 132.32H120.82Q120.916 132.704 120.916 133.28Q120.916 133.832 120.82 134.24Q120.916 134.624 120.916 135.2Q120.916 135.752 120.82 136.16H121.53999999999999Q121.636 136.544 121.636 137.12Q121.636 137.672 121.53999999999999 138.08ZM118.80399999999999 133.28Q118.80399999999999 132.704 118.89999999999999 132.32H118.41999999999999Q118.324 131.912 118.324 131.36Q118.324 130.784 118.41999999999999 130.4H116.97999999999999Q117.076 130.784 117.076 131.36Q117.076 131.912 116.97999999999999 132.32H116.49999999999999Q116.59599999999999 132.704 116.59599999999999 133.28Q116.59599999999999 133.832 116.49999999999999 134.24H118.89999999999999Q118.80399999999999 133.832 118.80399999999999 133.28Z M140.14 138.08Q140.236 138.464 140.236 139.04Q140.236 139.592 140.14 140.0H138.22Q138.124 139.592 138.124 139.04Q138.124 138.464 138.22 138.08H137.5Q137.404 137.672 137.404 137.12Q137.404 136.544 137.5 136.16H136.78Q136.684 135.752 136.684 135.2Q136.684 134.624 136.78 134.24H134.38Q134.476 134.624 134.476 135.2Q134.476 135.752 134.38 136.16Q134.476 136.544 134.476 137.12Q134.476 137.672 134.38 138.08Q134.476 138.464 134.476 139.04Q134.476 139.592 134.38 140.0H132.46Q132.364 139.592 132.364 139.04Q132.364 138.464 132.46 138.08Q132.364 137.672 132.364 137.12Q132.364 136.544 132.46 136.16Q132.364 135.752 132.364 135.2Q132.364 134.624 132.46 134.24Q132.364 133.832 132.364 133.28Q132.364 132.704 132.46 132.32Q132.364 131.912 132.364 131.36Q132.364 130.784 132.46 130.4Q132.364 129.992 132.364 129.44Q132.364 128.864 132.46 128.48Q132.364 128.072 132.364 127.52Q132.364 126.944 132.46 126.56H139.18Q139.276 126.944 139.276 127.52Q139.276 128.072 139.18 128.48H140.14Q140.236 128.864 140.236 129.44Q140.236 129.992 140.14 130.4H139.66Q139.756 130.784 139.756 131.36Q139.756 131.912 139.66 132.32H138.22Q138.316 132.704 138.316 133.28Q138.316 133.832 138.22 134.24H138.7Q138.796 134.624 138.796 135.2Q138.796 135.752 138.7 136.16H139.42Q139.516 136.544 139.516 137.12Q139.516 137.672 139.42 138.08ZM137.644 131.36Q137.644 130.784 137.74 130.4Q137.644 129.992 137.644 129.44Q137.644 128.864 137.74 128.48H134.38Q134.476 128.864 134.476 129.44Q134.476 129.992 134.38 130.4Q134.476 130.784 134.476 131.36Q134.476 131.912 134.38 132.32H137.74Q137.644 131.912 137.644 131.36Z M158.74 128.48H155.85999999999999Q155.956 128.864 155.956 129.44Q155.956 129.992 155.85999999999999 130.4Q155.956 130.784 155.956 131.36Q155.956 131.912 155.85999999999999 132.32Q155.956 132.704 155.956 133.28Q155.956 133.832 155.85999999999999 134.24Q155.956 134.624 155.956 135.2Q155.956 135.752 155.85999999999999 136.16Q155.956 136.544 155.956 137.12Q155.956 137.672 155.85999999999999 138.08Q155.956 138.464 155.956 139.04Q155.956 139.592 155.85999999999999 140.0H153.94Q153.844 139.592 153.844 139.04Q153.844 138.464 153.94 138.08Q153.844 137.672 153.844 137.12Q153.844 136.544 153.94 136.16Q153.844 135.752 153.844 135.2Q153.844 134.624 153.94 134.24Q153.844 133.832 153.844 133.28Q153.844 132.704 153.94 132.32Q153.844 131.912 153.844 131.36Q153.844 130.784 153.94 130.4Q153.844 129.992 153.844 129.44Q153.844 128.864 153.94 128.48H151.06Q150.964 128.072 150.964 127.52Q150.964 126.944 151.06 126.56H158.74Q158.83599999999998 126.944 158.83599999999998 127.52Q158.83599999999998 128.072 158.74 128.48Z  M195.94 128.48H193.05999999999997Q193.15599999999998 128.864 193.15599999999998 129.44Q193.15599999999998 129.992 193.05999999999997 130.4Q193.15599999999998 130.784 193.15599999999998 131.36Q193.15599999999998 131.912 193.05999999999997 132.32Q193.15599999999998 132.704 193.15599999999998 133.28Q193.15599999999998 133.832 193.05999999999997 134.24Q193.15599999999998 134.624 193.15599999999998 135.2Q193.15599999999998 135.752 193.05999999999997 136.16Q193.15599999999998 136.544 193.15599999999998 137.12Q193.15599999999998 137.672 193.05999999999997 138.08Q193.15599999999998 138.464 193.15599999999998 139.04Q193.15599999999998 139.592 193.05999999999997 140.0H191.14Q191.04399999999998 139.592 191.04399999999998 139.04Q191.04399999999998 138.464 191.14 138.08Q191.04399999999998 137.672 191.04399999999998 137.12Q191.04399999999998 136.544 191.14 136.16Q191.04399999999998 135.752 191.04399999999998 135.2Q191.04399999999998 134.624 191.14 134.24Q191.04399999999998 133.832 191.04399999999998 133.28Q191.04399999999998 132.704 191.14 132.32Q191.04399999999998 131.912 191.04399999999998 131.36Q191.04399999999998 130.784 191.14 130.4Q191.04399999999998 129.992 191.04399999999998 129.44Q191.04399999999998 128.864 191.14 128.48H188.26Q188.164 128.072 188.164 127.52Q188.164 126.944 188.26 126.56H195.94Q196.03599999999997 126.944 196.03599999999997 127.52Q196.03599999999997 128.072 195.94 128.48Z M214.63599999999997 129.44Q214.63599999999997 129.992 214.53999999999996 130.4Q214.63599999999997 130.784 214.63599999999997 131.36Q214.63599999999997 131.912 214.53999999999996 132.32H213.81999999999996Q213.91599999999997 132.704 213.91599999999997 133.28Q213.91599999999997 133.832 213.81999999999996 134.24H213.09999999999997Q213.19599999999997 134.624 213.19599999999997 135.2Q213.19599999999997 135.752 213.09999999999997 136.16H212.61999999999998Q212.71599999999998 136.544 212.71599999999998 137.12Q212.71599999999998 137.672 212.61999999999998 138.08H211.65999999999997Q211.75599999999997 138.464 211.75599999999997 139.04Q211.75599999999997 139.592 211.65999999999997 140.0H209.73999999999998Q209.64399999999998 139.592 209.64399999999998 139.04Q209.64399999999998 138.464 209.73999999999998 138.08H208.77999999999997Q208.68399999999997 137.672 208.68399999999997 137.12Q208.68399999999997 136.544 208.77999999999997 136.16H208.29999999999998Q208.20399999999998 135.752 208.20399999999998 135.2Q208.20399999999998 134.624 208.29999999999998 134.24H207.57999999999998Q207.48399999999998 133.832 207.48399999999998 133.28Q207.48399999999998 132.704 207.57999999999998 132.32H206.85999999999999Q206.76399999999998 131.912 206.76399999999998 131.36Q206.76399999999998 130.784 206.85999999999999 130.4Q206.76399999999998 129.992 206.76399999999998 129.44Q206.76399999999998 128.864 206.85999999999999 128.48Q206.76399999999998 128.072 206.76399999999998 127.52Q206.76399999999998 126.944 206.85999999999999 126.56H208.77999999999997Q208.87599999999998 126.944 208.87599999999998 127.52Q208.87599999999998 128.072 208.77999999999997 128.48Q208.87599999999998 128.864 208.87599999999998 129.44Q208.87599999999998 129.992 208.77999999999997 130.4Q208.87599999999998 130.784 208.87599999999998 131.36Q208.87599999999998 131.912 208.77999999999997 132.32H209.49999999999997Q209.59599999999998 132.704 209.59599999999998 133.28Q209.59599999999998 133.832 209.49999999999997 134.24H210.21999999999997Q210.31599999999997 134.624 210.31599999999997 135.2Q210.31599999999997 135.752 210.21999999999997 136.16H211.17999999999998Q211.08399999999997 135.752 211.08399999999997 135.2Q211.08399999999997 134.624 211.17999999999998 134.24H211.89999999999998Q211.80399999999997 133.832 211.80399999999997 133.28Q211.80399999999997 132.704 211.89999999999998 132.32H212.61999999999998Q212.52399999999997 131.912 212.52399999999997 131.36Q212.52399999999997 130.784 212.61999999999998 130.4Q212.52399999999997 129.992 212.52399999999997 129.44Q212.52399999999997 128.864 212.61999999999998 128.48Q212.52399999999997 128.072 212.52399999999997 127.52Q212.52399999999997 126.944 212.61999999999998 126.56H214.53999999999996Q214.63599999999997 126.944 214.63599999999997 127.52Q214.63599999999997 128.072 214.53999999999996 128.48Q214.63599999999997 128.864 214.63599999999997 129.44Z  M250.87599999999998 133.28Q250.87599999999998 133.832 250.77999999999997 134.24H246.93999999999997Q247.03599999999997 134.624 247.03599999999997 135.2Q247.03599999999997 135.752 246.93999999999997 136.16Q247.03599999999997 136.544 247.03599999999997 137.12Q247.03599999999997 137.672 246.93999999999997 138.08Q247.03599999999997 138.464 247.03599999999997 139.04Q247.03599999999997 139.592 246.93999999999997 140.0H245.01999999999995Q244.92399999999998 139.592 244.92399999999998 139.04Q244.92399999999998 138.464 245.01999999999995 138.08Q244.92399999999998 137.672 244.92399999999998 137.12Q244.92399999999998 136.544 245.01999999999995 136.16Q244.92399999999998 135.752 244.92399999999998 135.2Q244.92399999999998 134.624 245.01999999999995 134.24Q244.92399999999998 133.832 244.92399999999998 133.28Q244.92399999999998 132.704 245.01999999999995 132.32Q244.92399999999998 131.912 244.92399999999998 131.36Q244.92399999999998 130.784 245.01999999999995 130.4Q244.92399999999998 129.992 244.92399999999998 129.44Q244.92399999999998 128.864 245.01999999999995 128.48Q244.92399999999998 128.072 244.92399999999998 127.52Q244.92399999999998 126.944 245.01999999999995 126.56H250.77999999999997Q250.87599999999998 126.944 250.87599999999998 127.52Q250.87599999999998 128.072 250.77999999999997 128.48H246.93999999999997Q247.03599999999997 128.864 247.03599999999997 129.44Q247.03599999999997 129.992 246.93999999999997 130.4Q247.03599999999997 130.784 247.03599999999997 131.36Q247.03599999999997 131.912 246.93999999999997 132.32H250.77999999999997Q250.87599999999998 132.704 250.87599999999998 133.28Z M270.4359999999999 133.28Q270.4359999999999 133.832 270.3399999999999 134.24Q270.4359999999999 134.624 270.4359999999999 135.2Q270.4359999999999 135.752 270.3399999999999 136.16H269.61999999999995Q269.71599999999995 136.544 269.71599999999995 137.12Q269.71599999999995 137.672 269.61999999999995 138.08H268.41999999999996Q268.5159999999999 138.464 268.5159999999999 139.04Q268.5159999999999 139.592 268.41999999999996 140.0H264.5799999999999Q264.4839999999999 139.592 264.4839999999999 139.04Q264.4839999999999 138.464 264.5799999999999 138.08H263.37999999999994Q263.28399999999993 137.672 263.28399999999993 137.12Q263.28399999999993 136.544 263.37999999999994 136.16H262.6599999999999Q262.5639999999999 135.752 262.5639999999999 135.2Q262.5639999999999 134.624 262.6599999999999 134.24Q262.5639999999999 133.832 262.5639999999999 133.28Q262.5639999999999 132.704 262.6599999999999 132.32Q262.5639999999999 131.912 262.5639999999999 131.36Q262.5639999999999 130.784 262.6599999999999 130.4H263.37999999999994Q263.28399999999993 129.992 263.28399999999993 129.44Q263.28399999999993 128.864 263.37999999999994 128.48H264.5799999999999Q264.4839999999999 128.072 264.4839999999999 127.52Q264.4839999999999 126.944 264.5799999999999 126.56H268.41999999999996Q268.5159999999999 126.944 268.5159999999999 127.52Q268.5159999999999 128.072 268.41999999999996 128.48H269.61999999999995Q269.71599999999995 128.864 269.71599999999995 129.44Q269.71599999999995 129.992 269.61999999999995 130.4H270.3399999999999Q270.4359999999999 130.784 270.4359999999999 131.36Q270.4359999999999 131.912 270.3399999999999 132.32Q270.4359999999999 132.704 270.4359999999999 133.28ZM268.32399999999996 135.2Q268.32399999999996 134.624 268.41999999999996 134.24Q268.32399999999996 133.832 268.32399999999996 133.28Q268.32399999999996 132.704 268.41999999999996 132.32Q268.32399999999996 131.912 268.32399999999996 131.36Q268.32399999999996 130.784 268.41999999999996 130.4H267.69999999999993Q267.6039999999999 129.992 267.6039999999999 129.44Q267.6039999999999 128.864 267.69999999999993 128.48H265.29999999999995Q265.39599999999996 128.864 265.39599999999996 129.44Q265.39599999999996 129.992 265.29999999999995 130.4H264.5799999999999Q264.67599999999993 130.784 264.67599999999993 131.36Q264.67599999999993 131.912 264.5799999999999 132.32Q264.67599999999993 132.704 264.67599999999993 133.28Q264.67599999999993 133.832 264.5799999999999 134.24Q264.67599999999993 134.624 264.67599999999993 135.2Q264.67599999999993 135.752 264.5799999999999 136.16H265.29999999999995Q265.39599999999996 136.544 265.39599999999996 137.12Q265.39599999999996 137.672 265.29999999999995 138.08H267.69999999999993Q267.6039999999999 137.672 267.6039999999999 137.12Q267.6039999999999 136.544 267.69999999999993 136.16H268.41999999999996Q268.32399999999996 135.752 268.32399999999996 135.2Z M288.93999999999994 138.08Q289.03599999999994 138.464 289.03599999999994 139.04Q289.03599999999994 139.592 288.93999999999994 140.0H287.02Q286.924 139.592 286.924 139.04Q286.924 138.464 287.02 138.08H286.29999999999995Q286.20399999999995 137.672 286.20399999999995 137.12Q286.20399999999995 136.544 286.29999999999995 136.16H285.5799999999999Q285.484 135.752 285.484 135.2Q285.484 134.624 285.5799999999999 134.24H283.17999999999995Q283.27599999999995 134.624 283.27599999999995 135.2Q283.27599999999995 135.752 283.17999999999995 136.16Q283.27599999999995 136.544 283.27599999999995 137.12Q283.27599999999995 137.672 283.17999999999995 138.08Q283.27599999999995 138.464 283.27599999999995 139.04Q283.27599999999995 139.592 283.17999999999995 140.0H281.25999999999993Q281.16399999999993 139.592 281.16399999999993 139.04Q281.16399999999993 138.464 281.25999999999993 138.08Q281.16399999999993 137.672 281.16399999999993 137.12Q281.16399999999993 136.544 281.25999999999993 136.16Q281.16399999999993 135.752 281.16399999999993 135.2Q281.16399999999993 134.624 281.25999999999993 134.24Q281.16399999999993 133.832 281.16399999999993 133.28Q281.16399999999993 132.704 281.25999999999993 132.32Q281.16399999999993 131.912 281.16399999999993 131.36Q281.16399999999993 130.784 281.25999999999993 130.4Q281.16399999999993 129.992 281.16399999999993 129.44Q281.16399999999993 128.864 281.25999999999993 128.48Q281.16399999999993 128.072 281.16399999999993 127.52Q281.16399999999993 126.944 281.25999999999993 126.56H287.97999999999996Q288.07599999999996 126.944 288.07599999999996 127.52Q288.07599999999996 128.072 287.97999999999996 128.48H288.93999999999994Q289.03599999999994 128.864 289.03599999999994 129.44Q289.03599999999994 129.992 288.93999999999994 130.4H288.46Q288.5559999999999 130.784 288.5559999999999 131.36Q288.5559999999999 131.912 288.46 132.32H287.02Q287.11599999999993 132.704 287.11599999999993 133.28Q287.11599999999993 133.832 287.02 134.24H287.49999999999994Q287.59599999999995 134.624 287.59599999999995 135.2Q287.59599999999995 135.752 287.49999999999994 136.16H288.21999999999997Q288.316 136.544 288.316 137.12Q288.316 137.672 288.21999999999997 138.08ZM286.44399999999996 131.36Q286.44399999999996 130.784 286.53999999999996 130.4Q286.44399999999996 129.992 286.44399999999996 129.44Q286.44399999999996 128.864 286.53999999999996 128.48H283.17999999999995Q283.27599999999995 128.864 283.27599999999995 129.44Q283.27599999999995 129.992 283.17999999999995 130.4Q283.27599999999995 130.784 283.27599999999995 131.36Q283.27599999999995 131.912 283.17999999999995 132.32H286.53999999999996Q286.44399999999996 131.912 286.44399999999996 131.36Z  M326.13999999999993 136.16Q326.23599999999993 136.544 326.23599999999993 137.12Q326.23599999999993 137.672 326.13999999999993 138.08H325.17999999999995Q325.27599999999995 138.464 325.27599999999995 139.04Q325.27599999999995 139.592 325.17999999999995 140.0H320.37999999999994Q320.28399999999993 139.592 320.28399999999993 139.04Q320.28399999999993 138.464 320.37999999999994 138.08H319.41999999999996Q319.32399999999996 137.672 319.32399999999996 137.12Q319.32399999999996 136.544 319.41999999999996 136.16H318.4599999999999Q318.3639999999999 135.752 318.3639999999999 135.2Q318.3639999999999 134.624 318.4599999999999 134.24Q318.3639999999999 133.832 318.3639999999999 133.28Q318.3639999999999 132.704 318.4599999999999 132.32Q318.3639999999999 131.912 318.3639999999999 131.36Q318.3639999999999 130.784 318.4599999999999 130.4H319.41999999999996Q319.32399999999996 129.992 319.32399999999996 129.44Q319.32399999999996 128.864 319.41999999999996 128.48H320.37999999999994Q320.28399999999993 128.072 320.28399999999993 127.52Q320.28399999999993 126.944 320.37999999999994 126.56H325.17999999999995Q325.27599999999995 126.944 325.27599999999995 127.52Q325.27599999999995 128.072 325.17999999999995 128.48H326.13999999999993Q326.23599999999993 128.864 326.23599999999993 129.44Q326.23599999999993 129.992 326.13999999999993 130.4H324.21999999999997Q324.12399999999997 129.992 324.12399999999997 129.44Q324.12399999999997 128.864 324.21999999999997 128.48H321.3399999999999Q321.4359999999999 128.864 321.4359999999999 129.44Q321.4359999999999 129.992 321.3399999999999 130.4H320.37999999999994Q320.47599999999994 130.784 320.47599999999994 131.36Q320.47599999999994 131.912 320.37999999999994 132.32Q320.47599999999994 132.704 320.47599999999994 133.28Q320.47599999999994 133.832 320.37999999999994 134.24Q320.47599999999994 134.624 320.47599999999994 135.2Q320.47599999999994 135.752 320.37999999999994 136.16H321.3399999999999Q321.4359999999999 136.544 321.4359999999999 137.12Q321.4359999999999 137.672 321.3399999999999 138.08H324.21999999999997Q324.12399999999997 137.672 324.12399999999997 137.12Q324.12399999999997 136.544 324.21999999999997 136.16Z M344.73999999999995 138.08Q344.83599999999996 138.464 344.83599999999996 139.04Q344.83599999999996 139.592 344.73999999999995 140.0H342.82Q342.724 139.592 342.724 139.04Q342.724 138.464 342.82 138.08H342.09999999999997Q342.00399999999996 137.672 342.00399999999996 137.12Q342.00399999999996 136.544 342.09999999999997 136.16H341.37999999999994Q341.284 135.752 341.284 135.2Q341.284 134.624 341.37999999999994 134.24H338.97999999999996Q339.07599999999996 134.624 339.07599999999996 135.2Q339.07599999999996 135.752 338.97999999999996 136.16Q339.07599999999996 136.544 339.07599999999996 137.12Q339.07599999999996 137.672 338.97999999999996 138.08Q339.07599999999996 138.464 339.07599999999996 139.04Q339.07599999999996 139.592 338.97999999999996 140.0H337.05999999999995Q336.96399999999994 139.592 336.96399999999994 139.04Q336.96399999999994 138.464 337.05999999999995 138.08Q336.96399999999994 137.672 336.96399999999994 137.12Q336.96399999999994 136.544 337.05999999999995 136.16Q336.96399999999994 135.752 336.96399999999994 135.2Q336.96399999999994 134.624 337.05999999999995 134.24Q336.96399999999994 133.832 336.96399999999994 133.28Q336.96399999999994 132.704 337.05999999999995 132.32Q336.96399999999994 131.912 336.96399999999994 131.36Q336.96399999999994 130.784 337.05999999999995 130.4Q336.96399999999994 129.992 336.96399999999994 129.44Q336.96399999999994 128.864 337.05999999999995 128.48Q336.96399999999994 128.072 336.96399999999994 127.52Q336.96399999999994 126.944 337.05999999999995 126.56H343.78Q343.876 126.944 343.876 127.52Q343.876 128.072 343.78 128.48H344.73999999999995Q344.83599999999996 128.864 344.83599999999996 129.44Q344.83599999999996 129.992 344.73999999999995 130.4H344.26Q344.356 130.784 344.356 131.36Q344.356 131.912 344.26 132.32H342.82Q342.91599999999994 132.704 342.91599999999994 133.28Q342.91599999999994 133.832 342.82 134.24H343.29999999999995Q343.39599999999996 134.624 343.39599999999996 135.2Q343.39599999999996 135.752 343.29999999999995 136.16H344.02Q344.116 136.544 344.116 137.12Q344.116 137.672 344.02 138.08ZM342.24399999999997 131.36Q342.24399999999997 130.784 342.34 130.4Q342.24399999999997 129.992 342.24399999999997 129.44Q342.24399999999997 128.864 342.34 128.48H338.97999999999996Q339.07599999999996 128.864 339.07599999999996 129.44Q339.07599999999996 129.992 338.97999999999996 130.4Q339.07599999999996 130.784 339.07599999999996 131.36Q339.07599999999996 131.912 338.97999999999996 132.32H342.34Q342.24399999999997 131.912 342.24399999999997 131.36Z M363.34 128.48H360.46Q360.556 128.864 360.556 129.44Q360.556 129.992 360.46 130.4Q360.556 130.784 360.556 131.36Q360.556 131.912 360.46 132.32Q360.556 132.704 360.556 133.28Q360.556 133.832 360.46 134.24Q360.556 134.624 360.556 135.2Q360.556 135.752 360.46 136.16Q360.556 136.544 360.556 137.12Q360.556 137.672 360.46 138.08Q360.556 138.464 360.556 139.04Q360.556 139.592 360.46 140.0H358.53999999999996Q358.444 139.592 358.444 139.04Q358.444 138.464 358.53999999999996 138.08Q358.444 137.672 358.444 137.12Q358.444 136.544 358.53999999999996 136.16Q358.444 135.752 358.444 135.2Q358.444 134.624 358.53999999999996 134.24Q358.444 133.832 358.444 133.28Q358.444 132.704 358.53999999999996 132.32Q358.444 131.912 358.444 131.36Q358.444 130.784 358.53999999999996 130.4Q358.444 129.992 358.444 129.44Q358.444 128.864 358.53999999999996 128.48H355.65999999999997Q355.56399999999996 128.072 355.56399999999996 127.52Q355.56399999999996 126.944 355.65999999999997 126.56H363.34Q363.436 126.944 363.436 127.52Q363.436 128.072 363.34 128.48Z" fill="#e8eeff"/></g></svg>